<svg width="647" height="603" fill="none" xmlns="http://www.w3.org/2000/svg"><g filter="url(#filter0_bii_127_6)"><path fill-rule="evenodd" clip-rule="evenodd" d="M641.943 401.079c-27.446 70.69-140.735 42.8-207.442 78.862-57.13 30.885-87.694 101.839-151.277 115.063-71.672 14.907-156.599 9.707-210.51-39.817-53.35-49.007-44.177-133.056-55.56-204.599-9.912-62.289-27.457-125.043-6.35-184.48C32.098 106.146 76.98 56.08 132.671 25.303 185.668-3.984 247.771.052 308.3 1.703c61.535 1.68 130.605-7.16 177.065 33.225 46.037 40.016 32.135 113.379 56.119 169.464 29.672 69.388 127.773 126.337 100.459 196.687z" fill="#DFDFDF" fill-opacity=".2"/></g><defs><filter id="filter0_bii_127_6" x="-85.141" y="-85.464" width="817.834" height="773.814" filterUnits="userSpaceOnUse" color-interpolation-filters="sRGB"><feFlood flood-opacity="0" result="BackgroundImageFix"/><feGaussianBlur in="BackgroundImage" stdDeviation="43"/><feComposite in2="SourceAlpha" operator="in" result="effect1_backgroundBlur_127_6"/><feBlend in="SourceGraphic" in2="effect1_backgroundBlur_127_6" result="shape"/><feColorMatrix in="SourceAlpha" values="0 0 0 0 0 0 0 0 0 0 0 0 0 0 0 0 0 0 127 0" result="hardAlpha"/><feOffset dy="4"/><feGaussianBlur stdDeviation="2"/><feComposite in2="hardAlpha" operator="arithmetic" k2="-1" k3="1"/><feColorMatrix values="0 0 0 0 1 0 0 0 0 1 0 0 0 0 1 0 0 0 0.15 0"/><feBlend in2="shape" result="effect2_innerShadow_127_6"/><feColorMatrix in="SourceAlpha" values="0 0 0 0 0 0 0 0 0 0 0 0 0 0 0 0 0 0 127 0" result="hardAlpha"/><feOffset/><feGaussianBlur stdDeviation="34"/><feComposite in2="hardAlpha" operator="arithmetic" k2="-1" k3="1"/><feColorMatrix values="0 0 0 0 1 0 0 0 0 1 0 0 0 0 1 0 0 0 0.05 0"/><feBlend in2="effect2_innerShadow_127_6" result="effect3_innerShadow_127_6"/></filter></defs></svg>