<svg width="1546" height="80" fill="none" xmlns="http://www.w3.org/2000/svg"><mask id="a" style="mask-type:alpha" maskUnits="userSpaceOnUse" x="0" y="0" width="1546" height="80"><path d="M16.933 0h3.607v3.563h3.3V0h3.607v10.787H23.84v-3.61h-3.3v3.61h-3.603V0h-.004zm15.254 3.577h-3.174V0h9.957v3.577h-3.177v7.21h-3.606v-7.21zM40.55 0h3.76l2.313 3.79L48.933 0h3.76v10.787h-3.59V5.44l-2.48 3.837h-.063l-2.483-3.834v5.344H40.55V0zm13.937 0h3.61v7.223h5.066v3.567h-8.676V0z" fill="#EE7373"/><path fill-rule="evenodd" clip-rule="evenodd" d="M16.82 73.573L10 15.723h60l-6.823 57.844L39.967 80 16.82 73.573zm13.79-31.666l-.647-7.267h27.15l.634-7.093H22.213l1.914 21.456h24.59l-.824 9.2-7.913 2.14h-.007l-7.9-2.133-.506-5.657H24.44l.993 11.14 14.534 4.034 14.556-4.034 1.774-19.88.173-1.903H30.61v-.003z" fill="#EE7373"/><path d="M165.007 0h8.593v3.593h-5v3.594h5v3.593h-8.593V0zm10.31 0h8.596v3.127h-5v.623h5v7.187h-8.596v-3.28h5V7.03h-5V0zm10.316 0h8.59v3.127h-5v.623h5v7.187h-8.59v-3.28h5V7.03h-5V0z" fill="#EE7373"/><path fill-rule="evenodd" clip-rule="evenodd" d="M179.97 80l-23.147-6.427L150 15.723h60l-6.82 57.844L179.97 80zm-16.48-38.09l.637 7.093h24.59l-.824 9.2-7.913 2.14h-.007l-7.9-2.133-.506-5.657h-7.124l.994 11.14 14.533 4.034 14.557-4.034 1.773-19.88.173-1.903 1.28-14.363h-35.54l.647 7.096h27.12l-.647 7.267H163.49zM280 0h80v80h-80V0zm61.157 67.067c-3.71 0-5.807-1.934-7.417-4.567l-6.11 3.55c2.207 4.36 6.717 7.687 13.7 7.687 7.14 0 12.457-3.707 12.457-10.477 0-6.277-3.607-9.067-9.994-11.81l-1.88-.803c-3.226-1.4-4.623-2.31-4.623-4.567 0-1.823 1.4-3.22 3.6-3.22 2.157 0 3.547.91 4.837 3.22l5.853-3.757c-2.477-4.356-5.91-6.02-10.69-6.02-6.713 0-11.01 4.294-11.01 9.934 0 6.116 3.6 9.013 9.027 11.323l1.88.807c3.43 1.5 5.473 2.413 5.473 4.99 0 2.153-1.99 3.71-5.103 3.71zm-29.134-.05c-2.583 0-3.66-1.767-4.84-3.867l-6.12 3.707c1.774 3.753 5.26 6.866 11.277 6.866 6.663 0 11.227-3.543 11.227-11.326V36.73h-7.517v25.567c0 3.756-1.56 4.72-4.03 4.72h.003z" fill="#EE7373"/><path d="M431.15 23.117c-5.853 8.41-5.127 19.353-.653 28.29l.326.633c.07.133.137.273.21.403.04.08.087.157.13.23.211.388.431.77.66 1.147l.244.4a33.093 33.093 0 001.44 2.163l.12.164c.21.293.43.583.653.87l.247.313.606.743.23.274c.274.323.557.646.84.963l.017.017c.013.013.023.02.033.036.277.304.567.604.854.904l.276.276.684.67.28.267c.306.29.62.573.936.853l.014.014.163.136c.277.244.563.484.85.717l.35.28c.612.491 1.241.962 1.883 1.413.097.07.19.14.29.207l.08.057c.254.176.514.343.77.51.11.073.22.15.337.223a36.524 36.524 0 002.953 1.697c.217.113.43.226.65.336l.15.074.267.13c.34.16.683.323 1.027.476l.22.097c.396.173.796.34 1.2.497l.293.116a31.357 31.357 0 002.54.887l.307.093c.426.13.853.284 1.3.367 28.306 5.16 36.526-17.007 36.526-17.007-6.906 8.994-19.16 11.367-30.773 8.727-.44-.1-.87-.237-1.3-.363l-.323-.097a36.349 36.349 0 01-2.517-.88l-.31-.12c-.4-.157-.797-.323-1.187-.493l-.236-.104c-.337-.15-.672-.306-1.004-.466l-.29-.14c-.26-.127-.516-.264-.773-.394-.17-.09-.347-.176-.517-.273a25.47 25.47 0 01-.926-.52l-.314-.173c-.408-.24-.811-.488-1.21-.744l-.326-.216a34.466 34.466 0 01-.864-.574l-.276-.196a35.526 35.526 0 01-.814-.587c-.369-.277-.734-.56-1.093-.85l-.33-.263a39.361 39.361 0 01-1.977-1.73c-.093-.087-.183-.17-.27-.26a27.13 27.13 0 01-.693-.677l-.27-.27a36.41 36.41 0 01-.847-.897l-.04-.04a37.95 37.95 0 01-.86-.976l-.223-.27a35.363 35.363 0 01-1.563-1.997c-6.447-8.793-8.76-20.923-3.61-30.883" fill="#EE7373"/><path d="M449.313 16.03c-4.233 6.09-4 14.243-.7 20.683a27.333 27.333 0 001.87 3.127c.637.91 1.337 1.99 2.18 2.72.307.337.624.663.947.983l.253.247c.314.307.634.607.97.903l.037.034.01.006c.37.324.747.634 1.133.937l.26.2c.399.309.805.607 1.22.893.177.124.36.24.537.357.087.057.17.117.26.17.329.213.664.417 1.003.613.254.147.517.29.777.434.087.05.183.096.273.143.184.093.36.19.544.277.401.198.807.388 1.216.57l.247.103c.31.13.62.257.937.377l.39.146c.286.107.57.2.853.297l.39.123c.403.127.81.284 1.233.357 21.854 3.62 26.894-13.203 26.894-13.203-4.547 6.546-13.354 9.673-22.75 7.233a26.166 26.166 0 01-2.477-.773l-.393-.144a29.71 29.71 0 01-2.324-1.013c-.19-.093-.376-.193-.566-.29l-.33-.17a30.866 30.866 0 01-1.777-1.043l-.267-.177a25.5 25.5 0 01-2.006-1.45c-4.114-3.247-7.377-7.687-8.927-12.717-1.627-5.22-1.273-11.076 1.54-15.833" fill="#EE7373"/><path d="M464.597 10.737c-2.497 3.673-2.744 8.23-1.014 12.286 1.827 4.307 5.57 7.68 9.937 9.284.257.096.517.183.78.263.257.08.507.177.777.223 12.066 2.33 15.336-6.19 16.206-7.446-2.866 4.13-7.686 5.12-13.593 3.683a18.03 18.03 0 01-3.13-1.147 17.963 17.963 0 01-2.983-1.816c-5.284-4.014-8.577-11.67-5.12-17.907" fill="#EE7373"/><g clip-path="url(#clip0_206_6)"><path d="M597.73 55.365c-.038.075-.075.135 0 0zm31.14-10.875a16.38 16.38 0 00-7.25 1.688c-.738-1.488-1.5-2.788-1.625-3.763-.15-1.137-.313-1.813-.138-3.163.175-1.35.963-3.262.95-3.4-.012-.137-.175-.824-1.787-.837-1.613-.013-3 .313-3.163.737a15.19 15.19 0 00-.662 2.388c-.288 1.462-3.223 6.688-4.885 9.413-.55-1.063-1.013-2-1.113-2.75-.15-1.138-.312-1.813-.137-3.163.175-1.35.962-3.263.95-3.4-.013-.138-.175-.825-1.785-.837-1.61-.013-3 .312-3.163.737-.162.425-.337 1.425-.662 2.388-.325.962-4.238 9.662-5.26 11.925a61.721 61.721 0 01-1.3 2.7c-.05.1-.088.162-.113.212.038-.063.063-.125.063-.1-.275.538-.438.837-.438.837v.013c-.212.4-.45.762-.562.762-.075 0-.238-1.05.037-2.487.588-3.025 1.975-7.725 1.963-7.888-.013-.087.262-.9-.913-1.337-1.137-.413-1.55.275-1.65.275-.1 0-.175.25-.175.25s1.263-5.3-2.425-5.3c-2.3 0-5.5 2.525-7.072 4.812-.988.538-3.125 1.7-5.375 2.938l-2.588 1.425c-.062-.063-.112-.125-.175-.188-4.475-4.775-12.735-8.15-12.385-14.562.125-2.337.938-8.475 15.885-15.925 12.25-6.1 22.043-4.425 23.73-.7 2.425 5.313-5.237 15.2-17.957 16.625-4.85.538-7.398-1.337-8.035-2.037-.663-.738-.763-.776-1.013-.638-.412.225-.15.875 0 1.263.375.987 1.938 2.737 4.6 3.612 2.338.763 8.023 1.188 14.895-1.475 7.723-2.975 13.735-11.262 11.97-18.2-1.795-7.05-13.485-9.363-24.537-5.438-6.588 2.338-13.71 6.013-18.833 10.8-6.087 5.7-7.06 10.663-6.66 12.738 1.425 7.363 11.573 12.163 15.633 15.713l-.563.312c-2.037 1.012-9.772 5.063-11.71 9.337-2.187 4.85.363 8.325 2.035 8.8 5.225 1.45 10.573-1.162 13.448-5.45 2.875-4.287 2.525-9.887 1.2-12.437-.013-.038-.038-.063-.05-.1 1.5-.889 3.012-1.755 4.537-2.6-.5 1.35-.862 2.975-1.05 5.325-.225 2.75.913 6.313 2.388 7.712.65.613 1.435.626 1.925.626 1.725 0 2.5-1.425 3.362-3.125 1.063-2.075 2-4.488 2-4.488s-1.175 6.525 2.038 6.525c1.175 0 2.35-1.513 2.875-2.288v.013s.025-.05.087-.15c.125-.188.188-.3.188-.3v-.038c.475-.812 1.512-2.674 3.075-5.75 2.025-3.974 3.96-8.937 3.96-8.937.187 1.09.447 2.167.775 3.225.35 1.188 1.087 2.487 1.675 3.75-.475.65-.763 1.025-.763 1.025 0 .01.005.017.013.025-.375.5-.8 1.038-1.238 1.563-1.597 1.9-3.5 4.075-3.75 4.7-.3.737-.225 1.287.35 1.712.425.325 1.175.375 1.963.313 1.437-.1 2.45-.45 2.937-.675.9-.323 1.749-.769 2.525-1.325 1.563-1.15 2.513-2.8 2.425-4.976-.05-1.2-.437-2.4-.912-3.524.137-.2.287-.413.425-.626a66.721 66.721 0 004.387-7.577c.188 1.09.445 2.167.775 3.225.3 1.012.888 2.125 1.425 3.212-2.325 1.888-3.762 4.076-4.26 5.513-.925 2.662-.2 3.862 1.163 4.137.612.125 1.487-.162 2.137-.437a9.971 9.971 0 002.698-1.387c1.562-1.15 3.075-2.763 2.972-4.95-.037-.988-.312-1.976-.675-2.925 1.963-.825 4.513-1.276 7.763-.9 6.96.812 8.322 5.162 8.06 6.974-.263 1.813-1.725 2.825-2.213 3.125-.487.3-.637.413-.6.638.063.325.288.313.7.237.575-.1 3.65-1.475 3.788-4.837.2-4.25-3.888-8.925-11.125-8.888l-.005.003zm-53.648 18.087c-2.3 2.513-5.522 3.463-6.91 2.663-1.487-.865-.9-4.562 1.935-7.24 1.725-1.625 3.95-3.125 5.425-4.05.338-.2.825-.5 1.425-.863a2.13 2.13 0 01.15-.087c.113-.075.238-.138.363-.212 1.035 3.8.037 7.15-2.388 9.787v.002zm16.795-11.424c-.8 1.962-2.485 6.962-3.512 6.7-.875-.226-1.413-4.038-.175-7.788.625-1.887 1.95-4.137 2.737-5.012 1.263-1.413 2.65-1.863 2.975-1.3.438.737-1.525 6.175-2.025 7.4zm13.875 6.625c-.337.175-.65.287-.8.2-.112-.063.138-.3.138-.3s1.737-1.863 2.425-2.713c.4-.5.862-1.088 1.362-1.738 0 .063.013.126.013.2-.015 2.238-2.165 3.75-3.14 4.35h.002zm10.7-2.438c-.25-.175-.212-.763.625-2.588.325-.712 1.075-1.912 2.375-3.062.148.435.228.89.238 1.35-.013 2.813-2.025 3.863-3.238 4.3z" fill="#EE7373"/></g><path d="M760.765 10.048H748.75L740 23.89l-7.5-13.842H705L740 70l35-59.952h-14.235zm-47.063 5h8.408L740 46.015l17.875-30.967h8.408l-26.281 45.03-26.3-45.03zM871.95 38.973h14.427s8.106.13 8.106-7.833V17.97s1.23-7.97-14.696-7.97c-15.247 0-14.297 6.61-14.297 6.61l.02 6.85h14.543v2.057h-20.32s-9.756-1.107-9.756 14.273c0 15.38 8.516 14.833 8.516 14.833h5.08v-7.136s-.276-8.514 8.377-8.514zm-.187-19.133a2.617 2.617 0 110-5.233 2.617 2.617 0 010 5.233z" fill="#EE7373"/><path d="M901.507 25.107h-5.08v7.136s.276 8.514-8.377 8.514h-14.427s-8.106-.134-8.106 7.833v13.17s-1.23 7.97 14.696 7.97c15.244 0 14.294-6.61 14.294-6.61l-.02-6.847h-14.544v-2.056h20.324s9.756 1.106 9.756-14.274c0-15.38-8.516-14.836-8.516-14.836zm-13.27 34.786a2.617 2.617 0 110 5.233 2.617 2.617 0 010-5.233z" fill="#EE7373"/><g clip-path="url(#clip1_206_6)"><path d="M1058.49 36.435L1023.56 1.51a5.218 5.218 0 00-1.67-1.117 5.186 5.186 0 00-1.97-.392c-.68 0-1.35.133-1.97.392-.63.259-1.2.639-1.68 1.117l-7.25 7.25 9.2 9.2a6.125 6.125 0 016.32 1.477 6.058 6.058 0 011.62 2.955 6.036 6.036 0 01-.19 3.368l8.87 8.87a6.109 6.109 0 014.05-.004 6.11 6.11 0 012.28 10.129 6.124 6.124 0 01-7.74.78 6.132 6.132 0 01-2.27-7.45l-8.26-8.27V51.58a6.133 6.133 0 012.85 2.929 6.13 6.13 0 01.37 4.068 6.111 6.111 0 01-2.26 3.4 6.136 6.136 0 01-7.7-.275 6.083 6.083 0 01-2.01-3.553 6.078 6.078 0 01.66-4.031 6.137 6.137 0 013.05-2.718V29.435a6.074 6.074 0 01-2-1.33 6.154 6.154 0 01-1.81-4.355c.01-.808.17-1.609.48-2.355l-9.07-9.07-23.945 23.95a5.143 5.143 0 00-1.509 3.642 5.149 5.149 0 001.509 3.643l34.925 34.93c.48.479 1.05.858 1.68 1.117a5.11 5.11 0 001.97.392c.67 0 1.34-.133 1.97-.392a5.219 5.219 0 001.67-1.117l34.76-34.765a5.137 5.137 0 001.51-3.642 5.14 5.14 0 00-1.51-3.643" fill="#EE7373"/></g><path fill-rule="evenodd" clip-rule="evenodd" d="M1160 0c-22.1 0-40 17.9-40 40 0 17.7 11.45 32.65 27.35 37.95 2 .35 2.75-.85 2.75-1.9 0-.95-.05-4.1-.05-7.45-10.05 1.85-12.65-2.45-13.45-4.7-.45-1.15-2.4-4.7-4.1-5.65-1.4-.75-3.4-2.6-.05-2.65 3.15-.05 5.4 2.9 6.15 4.1 3.6 6.05 9.35 4.35 11.65 3.3.35-2.6 1.4-4.35 2.55-5.35-8.9-1-18.2-4.45-18.2-19.75 0-4.35 1.55-7.95 4.1-10.75-.4-1-1.8-5.1.4-10.6 0 0 3.35-1.05 11 4.1 3.2-.9 6.6-1.35 10-1.35 3.4 0 6.8.45 10 1.35 7.65-5.2 11-4.1 11-4.1 2.2 5.5.8 9.6.4 10.6 2.55 2.8 4.1 6.35 4.1 10.75 0 15.35-9.35 18.75-18.25 19.75 1.45 1.25 2.7 3.65 2.7 7.4 0 5.35-.05 9.65-.05 11 0 1.05.75 2.3 2.75 1.9a40.08 40.08 0 0019.73-14.592A40.036 40.036 0 001200 40c0-22.1-17.9-40-40-40z" fill="#EE7373"/><path d="M1276.67 18.333c0-3.094 1.23-6.061 3.41-8.25a11.679 11.679 0 018.25-3.416H1300V30h-11.67c-3.09 0-6.06-1.23-8.25-3.417a11.693 11.693 0 01-3.41-8.25zM1300 6.667h11.67a11.695 11.695 0 018.25 3.417 11.783 11.783 0 012.53 3.785 11.778 11.778 0 010 8.93 11.784 11.784 0 01-2.53 3.784 11.711 11.711 0 01-3.79 2.529c-1.41.586-2.93.888-4.46.888H1300V6.667z" stroke="#EE7373" stroke-width="2" stroke-linecap="round" stroke-linejoin="round"/><path d="M1300 41.667c0-1.532.3-3.05.89-4.465a11.467 11.467 0 012.53-3.785 11.667 11.667 0 013.78-2.529 11.68 11.68 0 018.93 0 11.71 11.71 0 013.79 2.53 11.783 11.783 0 012.53 3.784 11.779 11.779 0 010 8.93 11.782 11.782 0 01-2.53 3.784 11.71 11.71 0 01-3.79 2.53 11.68 11.68 0 01-8.93 0 11.668 11.668 0 01-3.78-2.53 11.466 11.466 0 01-2.53-3.785 11.6 11.6 0 01-.89-4.464v0zM1276.67 65c0-3.094 1.23-6.062 3.41-8.25a11.679 11.679 0 018.25-3.416H1300V65a11.66 11.66 0 01-3.42 8.25 11.66 11.66 0 01-8.25 3.417c-3.09 0-6.06-1.23-8.25-3.417a11.693 11.693 0 01-3.41-8.25z" stroke="#EE7373" stroke-width="2" stroke-linecap="round" stroke-linejoin="round"/><path d="M1276.67 41.667c0-3.095 1.23-6.062 3.41-8.25a11.679 11.679 0 018.25-3.417H1300v23.333h-11.67c-3.09 0-6.06-1.229-8.25-3.417a11.693 11.693 0 01-3.41-8.25z" stroke="#EE7373" stroke-width="2" stroke-linecap="round" stroke-linejoin="round"/><g clip-path="url(#clip2_206_6)"><path d="M1480 38.66v2.682l-.08.43c-.13 1.173-.22 2.345-.4 3.49a29.028 29.028 0 01-3.92 10.483 29.491 29.491 0 01-12.16 11.21 28.12 28.12 0 01-9.36 2.8c-.73.09-1.46.17-2.18.247h-28.11c-.14-.025-.27-.065-.42-.077-2.82-.17-5.58-.846-8.16-1.993-5.67-2.525-9.89-6.602-12.65-12.212-1.21-2.485-2-5.157-2.33-7.903l-.23-2.005v-2.605c.02-.142.06-.287.08-.43.14-2.487.65-4.922 1.53-7.252 2.39-6.263 6.55-10.913 12.46-13.933a23.99 23.99 0 019.76-2.565 26.8 26.8 0 015.01.235.582.582 0 00.48-.157 29.56 29.56 0 018.19-6.028 28.332 28.332 0 019.42-2.825c.78-.09 1.56-.17 2.33-.247h2.39c.16.025.33.052.47.065 1.2.142 2.38.235 3.57.442 3.63.625 7.12 1.965 10.23 3.945a29.584 29.584 0 0111.07 12.383 29.18 29.18 0 012.77 9.532l.24 2.293v-.005zm-44.74-17.333c.05.065.07.105.09.105 1.64.833 3.22 1.798 4.7 2.89.09.065.33.04.44-.025 4.07-2.63 8.49-3.527 13.23-2.682 4.65.847 8.44 3.202 11.33 6.98 3.27 4.27 4.52 9.102 3.62 14.465-.61 3.595-2.03 6.835-4.44 9.532-4.4 4.935-9.91 6.98-16.39 6.12-3.99-.535-7.44-2.292-10.29-5.222-3.66-3.75-7.34-7.488-11.01-11.238-.5-.507-1.03-.897-1.74-.99-.59-.081-1.19.03-1.71.32-.52.289-.93.739-1.18 1.283-.47.99-.4 2.122.63 3.15 4.09 4.087 8.14 8.215 12.23 12.305.7.702 1.45 1.355 2.25 1.94 2.98 2.2 6.35 3.425 10 3.92 2.86.377 5.7.3 8.51-.353 5.38-1.225 9.83-4.01 13.34-8.32a24.03 24.03 0 005.24-12.227c.36-2.62.29-5.28-.2-7.878-.82-4.232-2.58-8.02-5.41-11.25-5.39-6.16-12.17-8.907-20.24-8.295a22.343 22.343 0 00-8.81 2.643 23.119 23.119 0 00-4.18 2.825l-.01.002zm-1.96 42.97c-.12-.105-.23-.207-.34-.312-1.67-1.603-3.35-3.203-5-4.83a1.406 1.406 0 00-1.07-.455c-1.68.04-3.35.052-5-.325-8.2-1.888-12.97-10.963-9.95-18.945 2.39-6.29 8.99-10.118 15.5-8.945 2.92.535 5.48 1.797 7.59 3.997 2.56 2.695 5.19 5.3 7.8 7.97.58.6 1.26.885 2.08.768 1.04-.158 1.89-.665 2.27-1.72.37-1.043.19-2.018-.58-2.813-2.72-2.8-5.37-5.677-8.2-8.36-5.49-5.207-11.96-6.757-19.13-4.545-9.62 2.983-15.26 13.085-13.06 23.06 2.01 9.103 9.83 15.47 18.98 15.483h7.67c.11 0 .24-.013.44-.025v-.003z" fill="#EE7373"/></g></mask><g mask="url(#a)"><path d="M-759.005-1200H2464.78v2400H-759.005v-2400z" fill="#2613DE"/><g filter="url(#filter0_f_206_6)"><path d="M298.216 1057.3C45.981 636.635 127.091 51.453 479.379-249.74l179.544-153.503C1011.21-704.436 1501.28-607.584 1753.51-186.917l126.39 210.78c252.23 420.667 171.12 1005.847-181.17 1307.047l-179.54 153.5c-352.29 301.19-842.353 204.34-1094.588-216.33L298.216 1057.3z" fill="url(#paint0_radial_206_6)"/></g><g style="mix-blend-mode:overlay" filter="url(#filter1_f_206_6)"><path d="M1801.06 1155.59c-170.08 421.64-595.54 598.06-948.651 394.97-353.112-203.1-502.822-710.313-332.743-1131.963s595.544-598.06 948.654-394.97c353.11 203.091 502.82 710.308 332.74 1131.963z" fill="url(#paint1_radial_206_6)"/></g><g filter="url(#filter2_f_206_6)"><path d="M747.898 511.028C619.763 828.693 299.226 961.598 33.196 808.593-232.833 655.587-345.623 273.456-217.488-44.209-89.353-361.874 231.185-494.78 497.214-341.774c266.03 153.005 378.819 535.137 250.684 852.802z" fill="url(#paint2_radial_206_6)"/></g></g><defs><radialGradient id="paint0_radial_206_6" cx="0" cy="0" r="1" gradientUnits="userSpaceOnUse" gradientTransform="matrix(810.98728 1029.34573 -1004.72042 791.58582 797.973 378.312)"><stop stop-color="#C7CB19"/><stop offset="1" stop-color="#FF7B1C" stop-opacity=".46"/></radialGradient><radialGradient id="paint1_radial_206_6" cx="0" cy="0" r="1" gradientUnits="userSpaceOnUse" gradientTransform="matrix(10.84806 -802.46668 673.48046 9.10438 1457.47 826.094)"><stop stop-color="#9D21FF"/><stop offset="1" stop-color="#F37474"/></radialGradient><radialGradient id="paint2_radial_206_6" cx="0" cy="0" r="1" gradientUnits="userSpaceOnUse" gradientTransform="rotate(-68.564 505.637 -163.946) scale(2703.73 2398.02)"><stop stop-color="#06E0FE"/><stop offset="1" stop-color="#CBF9FF" stop-opacity=".67"/></radialGradient><clipPath id="clip0_206_6"><path fill="#fff" transform="translate(560)" d="M0 0h80v80H0z"/></clipPath><clipPath id="clip1_206_6"><path fill="#fff" transform="translate(980)" d="M0 0h80v80H0z"/></clipPath><clipPath id="clip2_206_6"><path fill="#fff" transform="translate(1400)" d="M0 0h80v80H0z"/></clipPath><filter id="filter0_f_206_6" x="-246.296" y="-976.23" width="2670.7" height="3033.63" filterUnits="userSpaceOnUse" color-interpolation-filters="sRGB"><feFlood flood-opacity="0" result="BackgroundImageFix"/><feBlend in="SourceGraphic" in2="BackgroundImageFix" result="shape"/><feGaussianBlur stdDeviation="198.904" result="effect1_foregroundBlur_206_6"/></filter><filter id="filter1_f_206_6" x="60.094" y="-450.026" width="2200.54" height="2474.23" filterUnits="userSpaceOnUse" color-interpolation-filters="sRGB"><feFlood flood-opacity="0" result="BackgroundImageFix"/><feBlend in="SourceGraphic" in2="BackgroundImageFix" result="shape"/><feGaussianBlur stdDeviation="194.683" result="effect1_foregroundBlur_206_6"/></filter><filter id="filter2_f_206_6" x="-1469.88" y="-1604.78" width="3470.18" height="3676.37" filterUnits="userSpaceOnUse" color-interpolation-filters="sRGB"><feFlood flood-opacity="0" result="BackgroundImageFix"/><feBlend in="SourceGraphic" in2="BackgroundImageFix" result="shape"/><feGaussianBlur stdDeviation="599.751" result="effect1_foregroundBlur_206_6"/></filter></defs></svg>